<svg width="20" height="20" viewBox="0 0 20 20" fill="none" xmlns="http://www.w3.org/2000/svg">
<path d="M10 19.3031C4.477 19.3031 0 14.9821 0 9.65155C0 4.321 4.477 0 10 0C15.523 0 20 4.321 20 9.65155C20 14.9821 15.523 19.3031 10 19.3031ZM6.5 11.5819V13.5122H9V15.4425H11V13.5122H12C12.663 13.5122 13.2989 13.258 13.7678 12.8055C14.2366 12.3529 14.5 11.7392 14.5 11.0993C14.5 10.4593 14.2366 9.84562 13.7678 9.39312C13.2989 8.94061 12.663 8.6864 12 8.6864H8C7.86739 8.6864 7.74021 8.63555 7.64645 8.54505C7.55268 8.45455 7.5 8.33181 7.5 8.20382C7.5 8.07583 7.55268 7.95308 7.64645 7.86258C7.74021 7.77208 7.86739 7.72124 8 7.72124H13.5V5.79093H11V3.86062H9V5.79093H8C7.33696 5.79093 6.70107 6.04515 6.23223 6.49765C5.76339 6.95015 5.5 7.56388 5.5 8.20382C5.5 8.84376 5.76339 9.45748 6.23223 9.90999C6.70107 10.3625 7.33696 10.6167 8 10.6167H12C12.1326 10.6167 12.2598 10.6675 12.3536 10.758C12.4473 10.8486 12.5 10.9713 12.5 11.0993C12.5 11.2273 12.4473 11.35 12.3536 11.4405C12.2598 11.531 12.1326 11.5819 12 11.5819H6.5Z" fill="#171717"/>
</svg>
