<svg width="66" height="66" viewBox="0 0 66 66" fill="none" xmlns="http://www.w3.org/2000/svg">
<path d="M22.5586 39.0586L28.6172 33L22.5586 26.9414C21.9774 26.3602 21.6509 25.5719 21.6509 24.75C21.6509 23.9281 21.9774 23.1398 22.5586 22.5586C23.1398 21.9774 23.9281 21.6509 24.75 21.6509C25.5719 21.6509 26.3602 21.9774 26.9414 22.5586L33 28.6172L39.0586 22.5586C39.6398 21.9774 40.4281 21.6509 41.25 21.6509C42.0719 21.6509 42.8602 21.9774 43.4414 22.5586C44.0226 23.1398 44.3491 23.9281 44.3491 24.75C44.3491 25.5719 44.0226 26.3602 43.4414 26.9414L37.3828 33L43.4414 39.0586C43.7298 39.346 43.9587 39.6875 44.1148 40.0636C44.271 40.4396 44.3513 40.8428 44.3513 41.25C44.3513 41.6572 44.271 42.0604 44.1148 42.4364C43.9587 42.8125 43.7298 43.154 43.4414 43.4414C42.8576 44.0177 42.0703 44.3408 41.25 44.3408C40.4297 44.3408 39.6424 44.0177 39.0586 43.4414L33 37.3828L26.9414 43.4414C26.3576 44.0177 25.5703 44.3408 24.75 44.3408C23.9297 44.3408 23.1424 44.0177 22.5586 43.4414C22.2702 43.154 22.0413 42.8125 21.8852 42.4364C21.729 42.0604 21.6487 41.6572 21.6487 41.25C21.6487 40.8428 21.729 40.4396 21.8852 40.0636C22.0413 39.6875 22.2702 39.346 22.5586 39.0586ZM58.7812 12.375V53.625C58.7745 54.9904 58.2291 56.298 57.2635 57.2635C56.298 58.2291 54.9904 58.7745 53.625 58.7812H12.375C11.0096 58.7745 9.70199 58.2291 8.73647 57.2635C7.77095 56.298 7.22553 54.9904 7.21875 53.625V12.375C7.22553 11.0096 7.77095 9.70199 8.73647 8.73647C9.70199 7.77095 11.0096 7.22553 12.375 7.21875H53.625C54.9904 7.22553 56.298 7.77095 57.2635 8.73647C58.2291 9.70199 58.7745 11.0096 58.7812 12.375V12.375ZM52.5938 13.4062H13.4062V52.5938H52.5938V13.4062Z" fill="white"/>
</svg>
