<svg width="24" height="24" viewBox="0 0 24 24" fill="none" xmlns="http://www.w3.org/2000/svg">
<g clip-path="url(#clip0_114_3477)">
<path d="M10.2562 20.5124C10.2562 20.5124 8.79104 20.5124 8.79104 19.0472C8.79104 17.582 10.2562 13.1865 16.1169 13.1865C21.9776 13.1865 23.4428 17.582 23.4428 19.0472C23.4428 20.5124 21.9776 20.5124 21.9776 20.5124H10.2562ZM16.1169 11.7213C17.2827 11.7213 18.4007 11.2582 19.225 10.4339C20.0493 9.6096 20.5124 8.49159 20.5124 7.32582C20.5124 6.16006 20.0493 5.04204 19.225 4.21772C18.4007 3.3934 17.2827 2.9303 16.1169 2.9303C14.9511 2.9303 13.8331 3.3934 13.0088 4.21772C12.1845 5.04204 11.7214 6.16006 11.7214 7.32582C11.7214 8.49159 12.1845 9.6096 13.0088 10.4339C13.8331 11.2582 14.9511 11.7213 16.1169 11.7213ZM7.64235 20.5124C7.42514 20.055 7.31682 19.5535 7.32587 19.0472C7.32587 17.0619 8.32219 15.018 10.1624 13.5968C9.24392 13.3137 8.28695 13.1753 7.32587 13.1865C1.46517 13.1865 0 17.582 0 19.0472C0 20.5124 1.46517 20.5124 1.46517 20.5124H7.64235ZM6.59328 11.7213C7.56475 11.7213 8.49644 11.3354 9.18337 10.6485C9.8703 9.96156 10.2562 9.02988 10.2562 8.05841C10.2562 7.08694 9.8703 6.15525 9.18337 5.46832C8.49644 4.78139 7.56475 4.39547 6.59328 4.39547C5.62181 4.39547 4.69013 4.78139 4.0032 5.46832C3.31626 6.15525 2.93035 7.08694 2.93035 8.05841C2.93035 9.02988 3.31626 9.96156 4.0032 10.6485C4.69013 11.3354 5.62181 11.7213 6.59328 11.7213Z" fill="#171717"/>
</g>
<defs>
<clipPath id="clip0_114_3477">
<rect width="23.4428" height="23.4428" fill="white"/>
</clipPath>
</defs>
</svg>
