<svg width="26" height="25" viewBox="0 0 26 25" fill="none" xmlns="http://www.w3.org/2000/svg">
<path d="M21.5 0H4.5C2.09167 0 0.25 1.80236 0.25 4.15929V20.7964C0.25 23.1534 2.09167 24.9557 4.5 24.9557H21.5C23.9083 24.9557 25.75 23.1534 25.75 20.7964V4.15929C25.75 1.80236 23.9083 0 21.5 0ZM13 8.31858C15.4083 8.31858 17.25 10.1209 17.25 12.4779C17.25 14.8348 15.4083 16.6372 13 16.6372C10.5917 16.6372 8.75 14.8348 8.75 12.4779C8.75 10.1209 10.5917 8.31858 13 8.31858ZM18.3833 5.54572C18.3833 4.57522 19.2333 3.882 20.0833 3.882C20.9333 3.882 21.7833 4.71386 21.7833 5.54572C21.7833 6.37758 21.075 7.20943 20.0833 7.20943C19.0917 7.20943 18.3833 6.51622 18.3833 5.54572ZM21.5 22.1829H4.5C3.65 22.1829 3.08333 21.6283 3.08333 20.7964V12.4779H5.91667C5.91667 16.3599 9.03333 19.41 13 19.41C16.9667 19.41 20.0833 16.3599 20.0833 12.4779H22.9167V20.7964C22.9167 21.6283 22.35 22.1829 21.5 22.1829Z" fill="white"/>
</svg>
