<svg width="20" height="20" viewBox="0 0 20 20" fill="none" xmlns="http://www.w3.org/2000/svg">
<path d="M10.1 20C8.7 20 7.38733 19.7333 6.162 19.2C4.93733 18.6667 3.871 17.946 2.963 17.038C2.05433 16.1293 1.33333 15.0623 0.8 13.837C0.266667 12.6123 0 11.3 0 9.9C0 7.46667 0.775 5.32067 2.325 3.462C3.875 1.604 5.85 0.45 8.25 0C7.95 1.65 8.04167 3.26233 8.525 4.837C9.00833 6.41233 9.84167 7.79167 11.025 8.975C12.2083 10.1583 13.5877 10.9917 15.163 11.475C16.7377 11.9583 18.35 12.05 20 11.75C19.5667 14.15 18.4167 16.125 16.55 17.675C14.6833 19.225 12.5333 20 10.1 20Z" fill="#171717"/>
</svg>
