<svg width="54" height="54" viewBox="0 0 54 54" fill="none" xmlns="http://www.w3.org/2000/svg">
<circle cx="27" cy="27" r="27" fill="#474747"/>
<path fill-rule="evenodd" clip-rule="evenodd" d="M31.3248 29.899L36.7048 35.279C36.8939 35.4682 37 35.7248 37 35.9923C36.9999 36.2599 36.8935 36.5164 36.7043 36.7055C36.515 36.8946 36.2584 37.0008 35.9909 37.0007C35.7234 37.0006 35.4669 36.8942 35.2778 36.705L29.8978 31.325C28.2895 32.5707 26.267 33.1569 24.2419 32.9643C22.2167 32.7718 20.341 31.815 18.9962 30.2886C17.6515 28.7622 16.9388 26.7808 17.003 24.7475C17.0673 22.7143 17.9037 20.7818 19.3422 19.3434C20.7806 17.9049 22.713 17.0685 24.7463 17.0042C26.7796 16.94 28.761 17.6527 30.2874 18.9975C31.8138 20.3422 32.7706 22.218 32.9631 24.2431C33.1556 26.2683 32.5694 28.2907 31.3238 29.899H31.3248ZM24.9998 31C26.5911 31 28.1172 30.3678 29.2424 29.2426C30.3676 28.1174 30.9998 26.5913 30.9998 25C30.9998 23.4087 30.3676 21.8826 29.2424 20.7573C28.1172 19.6321 26.5911 19 24.9998 19C23.4085 19 21.8823 19.6321 20.7571 20.7573C19.6319 21.8826 18.9998 23.4087 18.9998 25C18.9998 26.5913 19.6319 28.1174 20.7571 29.2426C21.8823 30.3678 23.4085 31 24.9998 31Z" fill="white"/>
</svg>
