<svg width="36" height="37" viewBox="0 0 36 37" fill="none" xmlns="http://www.w3.org/2000/svg">
<path d="M33.6901 9.47827C32.5351 10.0033 31.2901 10.3483 30.0001 10.5133C31.3201 9.71827 32.3401 8.45827 32.8201 6.94327C31.5751 7.69327 30.1951 8.21827 28.7401 8.51827C27.5551 7.22827 25.8901 6.47827 24.0001 6.47827C20.4751 6.47827 17.5951 9.35827 17.5951 12.9133C17.5951 13.4233 17.6551 13.9183 17.7601 14.3833C12.4201 14.1133 7.66506 11.5483 4.50006 7.66327C3.94506 8.60827 3.63006 9.71827 3.63006 10.8883C3.63006 13.1233 4.75506 15.1033 6.49506 16.2283C5.43006 16.2283 4.44006 15.9283 3.57006 15.4783V15.5233C3.57006 18.6433 5.79006 21.2533 8.73006 21.8383C7.78615 22.0966 6.7952 22.1325 5.83506 21.9433C6.24247 23.222 7.04036 24.3409 8.11658 25.1427C9.1928 25.9445 10.4932 26.3888 11.8351 26.4133C9.5605 28.2139 6.74105 29.1872 3.84006 29.1733C3.33006 29.1733 2.82006 29.1433 2.31006 29.0833C5.16006 30.9133 8.55006 31.9783 12.1801 31.9783C24.0001 31.9783 30.4951 22.1683 30.4951 13.6633C30.4951 13.3783 30.4951 13.1083 30.4801 12.8233C31.7401 11.9233 32.8201 10.7833 33.6901 9.47827Z" fill="white"/>
</svg>
