<svg width="33" height="34" viewBox="0 0 33 34" fill="none" xmlns="http://www.w3.org/2000/svg">
<path d="M11.6602 18.5459H12.6639V23.5096H13.6264V18.5459H14.6302V17.7071H11.6602V18.5459ZM16.7339 22.4784C16.5689 22.6709 16.0052 23.0559 16.0052 22.5059V19.2196H15.1527V22.8084C15.1527 23.8946 16.2389 23.6059 16.7477 23.0421V23.5096H17.6002V19.2196H16.7477V22.4784H16.7339ZM19.9102 19.1921C19.4152 19.1921 19.0989 19.5634 19.0989 19.5634V17.6934H18.2327V23.5096H19.0989V23.1796C19.0989 23.1796 19.3877 23.5646 19.9102 23.5646C20.3639 23.5646 20.7077 23.1659 20.7077 22.6159V20.2371C20.7077 19.5909 20.4052 19.1921 19.9102 19.1921ZM19.8139 22.5059C19.8139 22.8221 19.5939 22.9734 19.3052 22.8496C19.2272 22.8132 19.1571 22.7618 19.0989 22.6984V20.0309C19.1539 19.9759 19.2227 19.9346 19.2777 19.8934C19.5802 19.7421 19.8139 19.9759 19.8139 20.2921V22.5059ZM22.9902 22.2859C22.9902 22.6159 22.8114 22.8359 22.6052 22.8496C22.3852 22.8634 22.1652 22.6846 22.1652 22.2859V21.4746H23.8014V20.3746C23.8056 20.2071 23.7761 20.0405 23.7147 19.8846C23.6533 19.7287 23.5612 19.5867 23.4439 19.4671C23.2074 19.2513 22.8978 19.1334 22.5777 19.1371C22.2752 19.1371 21.9589 19.2334 21.7114 19.4259C21.4502 19.6321 21.2852 19.9484 21.2852 20.3746V22.2996C21.2852 22.6846 21.4089 22.9871 21.6014 23.2071C21.8352 23.4546 22.1514 23.5921 22.4814 23.6059C22.8802 23.6196 23.3064 23.4546 23.5539 23.1109C23.7052 22.9046 23.8014 22.6296 23.8014 22.2996V22.0796H22.9902V22.2859ZM22.1652 20.3746C22.1652 20.1409 22.3027 19.8659 22.5639 19.8659C22.8252 19.8659 22.9902 20.1134 22.9902 20.3746V20.8146H22.1652V20.3746Z" fill="white"/>
<path d="M17.834 4.60327C16.2088 4.60336 14.5995 4.92356 13.0981 5.54558C11.5966 6.1676 10.2324 7.07926 9.08325 8.22851C7.93413 9.37777 7.02262 10.7421 6.40076 12.2436C5.77891 13.7451 5.45889 15.3544 5.45898 16.9796C5.45907 18.6048 5.77927 20.2141 6.40129 21.7156C7.02331 23.217 7.93497 24.5813 9.08423 25.7304C10.2335 26.8795 11.5978 27.791 13.0993 28.4129C14.6009 29.0347 16.2102 29.3547 17.8354 29.3546C21.1176 29.3545 24.2653 28.0504 26.5861 25.7294C28.9069 23.4084 30.2105 20.2605 30.2104 16.9783C30.2102 13.696 28.9061 10.5483 26.5851 8.22754C24.2641 5.90678 21.1162 4.60309 17.834 4.60327ZM20.0065 9.23702H21.1065V12.922C21.1065 13.1558 21.2165 13.1558 21.2577 13.1558C21.4227 13.1558 21.6702 12.977 21.794 12.8533V9.22327H22.894V14.0908H21.794V13.6645C21.6427 13.802 21.4915 13.912 21.3402 13.9945C21.134 14.1045 20.9415 14.1458 20.749 14.1458C20.6436 14.1508 20.5384 14.1325 20.4409 14.0921C20.3435 14.0517 20.2561 13.9902 20.1852 13.912C20.0615 13.7608 20.0065 13.527 20.0065 13.2383V9.23702ZM16.5002 10.5158C16.5002 9.75952 17.119 9.14077 17.8752 9.14077C18.6315 9.14077 19.2502 9.75952 19.2502 10.5158V12.8533C19.2502 13.6095 18.6315 14.2283 17.8752 14.2283C17.119 14.2283 16.5002 13.6095 16.5002 12.8533V10.5158ZM13.6402 7.55952L14.3002 9.97952L14.974 7.55952H16.2252L14.9327 11.382V14.0908H13.709V11.382L12.389 7.55952H13.6402ZM24.5027 24.802C23.8015 25.4895 17.8615 25.5033 17.8615 25.5033C17.8615 25.5033 11.9352 25.4895 11.2202 24.802C10.519 24.1145 10.519 20.6908 10.519 20.6633C10.519 20.6495 10.519 17.2258 11.2202 16.5245C11.9215 15.837 17.8615 15.8233 17.8615 15.8233C17.8615 15.8233 23.7877 15.837 24.5027 16.5245C25.204 17.212 25.2177 20.6358 25.2177 20.6633C25.2177 20.6633 25.2177 24.1008 24.5027 24.802Z" fill="white"/>
<path d="M17.8476 13.3344C18.0813 13.3344 18.1913 13.1969 18.2051 12.9769V10.3644C18.2051 10.1857 18.0263 10.0344 17.8613 10.0344C17.6963 10.0344 17.5176 10.1719 17.5176 10.3644V12.9769C17.5176 13.1832 17.6138 13.3207 17.8476 13.3344Z" fill="white"/>
</svg>
